#N canvas 539 116 736 637 10;
#X declare -path ../abs/rr_Libs;
#X obj 8 17 cnv 15 680 40 empty empty Generative_series 20 12 0 14
-233017 -66577 0;
#X obj 303 21 cnv 15 380 40 empty empty ABS:rr_serial 20 20 0 24 -128992
-262144 0;
#X obj 29 442 rr_OUTdac~;
#X obj 30 552 rr_record~;
#X msg 193 526 rec01.wav;
#X text 309 460 1st toggle turn ON/OFF your Dsp. 2nd toggle visualize
the wave sound. Slide is for volume.;
#X text 309 550 You can record your performance. Put the name. It show
passing seconds while recording. Bang to reset.;
#X obj 30 113 rr_density;
#X text 308 94 HOW TO: Use density to define how much times in seconds
you choose bang occures.;
#X text 309 410 Echo~ repeats sound (e1 \, e2 \, ...) every ms you
put as parameter and fade out. You can put multiples in sequence. You
can put 3rd attribute from 0-1 for feedback.;
#X msg 30 343 next \$1;
#X obj 29 79 declare -path ../abs/rr_Libs;
#X text 309 364 Tone~ generate a tone with envelope: Midi value (0-127)
in 1st inlet \, duration in ms 2nd inlet \, power for asc/desc (1-8)
in 3rd inlet.;
#X obj 142 413 *~ 0.15;
#X obj 30 178 t b b b, f 18;
#X obj 30 313 + 50;
#X obj 166 140 bng 15 250 50 0 empty empty empty 17 7 0 10 -262144
-1 -1;
#X obj 82 313 + 62;
#X obj 135 313 + 74;
#X text 308 174 Trga (trg arguments version) needs four arguments:
1st is division of inlet bangs \; 2nd is offset \; 3rd how many hits
\; 4rt is total length of sequence to divide in hits.;
#X text 308 254 Serial needs 2 arguments: 1st is interval with next
number in progression \; add 1 to interval every 2nd numbers. A bang
in 2nd inlet generate new progression. It returns a progression in
modulo 12 (imperfect serialism).;
#X obj 30 367 clone rr_tone~ 9 3000 3;
#X obj 30 391 rr_echo~ e1 50 0.25;
#X obj 30 202 rr_trga 1 0 2 3;
#X obj 30 249 rr_serial 3 1;
#X obj 82 227 rr_trga 1 1 3 4;
#X obj 82 273 rr_serial 2 1;
#X obj 135 202 rr_trga 2 0 3 7;
#X obj 135 250 rr_serial 2 3;
#X connect 2 0 3 0;
#X connect 2 1 3 1;
#X connect 4 0 3 2;
#X connect 7 0 14 0;
#X connect 10 0 21 0;
#X connect 13 0 2 1;
#X connect 13 0 2 0;
#X connect 14 0 23 0;
#X connect 14 1 25 0;
#X connect 14 2 27 0;
#X connect 15 0 10 0;
#X connect 16 0 24 1;
#X connect 16 0 26 1;
#X connect 16 0 28 1;
#X connect 17 0 10 0;
#X connect 18 0 10 0;
#X connect 21 0 22 0;
#X connect 22 0 2 0;
#X connect 22 0 2 1;
#X connect 22 1 13 0;
#X connect 23 0 24 0;
#X connect 24 0 15 0;
#X connect 25 0 26 0;
#X connect 26 0 17 0;
#X connect 27 0 28 0;
#X connect 28 0 18 0;
