#N canvas 6 116 693 637 10;
#X declare -path ../abs/rr_Libs;
#X obj 8 17 cnv 15 680 40 empty empty Generative_series 20 12 0 14
-233017 -66577 0;
#X obj 303 21 cnv 15 380 40 empty empty ABS:rr_colorize 20 20 0 24
-128992 -262144 0;
#X obj 30 509 rr_OUTdac~;
#X obj 29 73 declare -path ../abs/rr_Libs;
#X obj 29 101 rr_density;
#X obj 29 432 /~ 3;
#X obj 29 166 t b b b, f 8;
#X obj 74 392 rr_overtone~ 0 1 0.5 10 100 2500 1;
#X obj 462 426 tgl 15 0 empty empty empty 17 7 0 10 -262144 -1 -1 0
1;
#X obj 51 318 rr_overtone~ 0 3 0.5 10 0 1500 2;
#X obj 29 198 rr_cycle1 0 1 7 2 50;
#X obj 29 244 rr_overtone~ 0 5 0.5 10 0 250 3;
#X obj 143 482 *~ 0.5;
#X obj 29 456 rr_echo~ e1 250 0.5;
#X obj 399 448 rr_colorize;
#X text 298 479 Colorize does not need arguments. Put signal in 1st
inlet~ and 1/0 in 2nd inlet to start/stop.;
#X obj 51 272 rr_cycle1 0 3 7 1 40;
#X obj 74 346 rr_cycle1 0 5 7 1 30;
#X obj 29 221 rr_active 1;
#X obj 51 296 rr_active 2;
#X obj 74 370 rr_active 2;
#X connect 4 0 6 0;
#X connect 5 0 13 0;
#X connect 5 0 14 0;
#X connect 6 0 10 0;
#X connect 6 1 16 0;
#X connect 6 2 17 0;
#X connect 7 0 5 0;
#X connect 8 0 14 1;
#X connect 9 0 5 0;
#X connect 10 0 18 0;
#X connect 11 0 5 0;
#X connect 12 0 2 1;
#X connect 13 0 2 0;
#X connect 13 0 2 1;
#X connect 13 1 12 0;
#X connect 16 0 19 0;
#X connect 17 0 20 0;
#X connect 18 0 11 0;
#X connect 19 0 9 0;
#X connect 20 0 7 0;
